Coordinates
version=1
nRows=6
nColumns=36
inDegrees=yes

Units are S.I. units (second, meters, Newtons, ...)
If the header above contains a line with 'inDegrees', this indicates whether rotational values are in degrees (yes) or radians (no).

endheader
time	pelvis_tilt	pelvis_list	pelvis_rotation	pelvis_tx	pelvis_ty	pelvis_tz	hip_flexion_r	hip_adduction_r	hip_rotation_r	knee_angle_r	knee_angle_r_beta	ankle_angle_r	subtalar_angle_r	mtp_angle_r	hip_flexion_l	hip_adduction_l	hip_rotation_l	knee_angle_l	knee_angle_l_beta	ankle_angle_l	subtalar_angle_l	mtp_angle_l	lumbar_extension	lumbar_bending	lumbar_rotation	arm_flex_r	arm_add_r	arm_rot_r	elbow_flex_r	pro_sup_r	arm_flex_l	arm_add_l	arm_rot_l	elbow_flex_l	pro_sup_l
      1.05000000	    -18.83374135	     -2.16744521	      8.91518833	      0.43901323	      1.10214254	     -0.06916689	     54.26605906	     -8.40773500	     -3.03474487	     70.22950932	      1.22573617	     47.48996607	     11.19479211	     -7.49999987	     51.47909716	     -0.56902860	      3.47351004	     66.30937710	      1.15731696	     41.97736934	      1.15093781	     -7.49999987	    -49.96374751	      1.15587870	     -3.87434461	     28.16267845	    -16.61383377	     36.03331096	     21.27108996	     54.26511815	     24.36251187	    -19.66341960	     27.15427671	     18.06774124	     72.63289892
      1.06666670	    -18.58010616	     -1.93145615	      8.91132573	      0.43827854	      1.10283913	     -0.06241062	     53.94749643	     -8.41182082	     -2.55072395	     71.63563050	      1.25027761	     48.22465950	     10.46977693	     -7.49999987	     51.05961305	     -0.43470460	      3.42639264	     68.05059722	      1.18770698	     43.26232551	      1.82499386	     -7.49999987	    -50.27141300	      1.03780819	     -3.74291345	     28.97267008	    -15.67094126	     31.20339647	     21.96438814	     54.32481933	     25.75600314	    -20.34964960	     24.75249866	     20.40604534	     71.51946830
      1.08333330	    -18.35770171	     -1.63048539	      8.72027318	      0.44328481	      1.09710406	     -0.06530750	     53.81701415	     -8.25286464	     -1.84140690	     73.17998539	      1.27723169	     48.67447742	      9.35191412	     -7.49999987	     50.76785208	     -0.36399737	      3.23229393	     69.93244554	      1.22055143	     44.45320740	      2.02789040	     -7.49999987	    -49.89590188	      0.56531458	     -3.46145729	     30.17858650	    -15.45825155	     30.90192677	     22.12433104	     54.49185622	     27.09596985	    -20.59277804	     24.42127748	     20.90959007	     71.41094916
      1.10000000	    -18.13172533	     -1.45533707	      8.68221830	      0.45118447	      1.09488266	     -0.06287232	     53.28944148	     -8.16284874	     -1.52355505	     74.10937046	      1.29345252	     48.99907060	      8.59343404	     -7.49999987	     50.31077182	     -0.29142066	      3.17255050	     71.42491945	      1.24660001	     44.93365310	      1.88793868	     -7.49999987	    -49.20157608	      0.18216925	     -3.35243150	     30.92347149	    -15.28723298	     30.77331638	     22.23356343	     54.55137557	     27.99997599	    -20.81746693	     24.22372004	     21.15565972	     71.37065771
      1.11666670	    -18.03481940	     -1.17243711	      8.29515530	      0.45732554	      1.09297106	     -0.06500087	     53.01049354	     -7.60392256	     -0.60250919	     74.89623735	      1.30718594	     49.01698259	      6.34709404	     -7.49999987	     49.86179320	     -0.50655301	      2.60117603	     72.67394864	      1.26839968	     45.95393719	      2.24413867	     -7.49999987	    -47.73522437	     -0.52367919	     -3.15681454	     31.45146260	    -14.57697457	     27.36836395	     20.93674818	     57.75038360	     27.96669958	    -20.98200499	     20.23573149	     22.66079464	     71.06915925
      1.13333330	    -18.02622334	     -0.98158975	      8.20360594	      0.45778556	      1.09324330	     -0.06506479	     52.86521304	     -7.37540155	     -0.10267749	     75.43194906	      1.31653587	     49.03126414	      4.76580431	     -7.49999987	     49.86217434	     -0.54307428	      2.17818931	     73.91366265	      1.29003678	     46.53041021	      2.17914997	     -7.49999987	    -45.89708774	     -0.88848559	     -2.44201971	     30.85989371	    -15.06338983	     26.87244065	     21.05892909	     58.98164710	     28.38306075	    -20.99812222	     19.73041161	     23.88994049	     70.16448262
